<svg width="500" height="57" viewBox="0 0 500 57" fill="none" xmlns="http://www.w3.org/2000/svg">
<path d="M342.688 3.8315H348.843L373.742 48.7902H373.884L374.103 3.8315H378.985V55.2706H372.405L347.936 11.4245H347.795V55.2706H342.688V3.8315ZM413.36 54.092C410.107 55.4185 405.894 56.1555 402.419 56.1555C389.926 56.1555 385.269 47.7543 385.269 36.4789C385.269 24.9825 391.626 16.8025 401.163 16.8025C411.808 16.8025 416.17 25.3509 416.17 35.447V37.8056H390.369C390.369 45.7651 394.658 52.1756 402.789 52.1756C406.19 52.1756 411.143 50.7754 413.36 49.3751V54.092ZM411.069 33.8264C411.069 27.267 408.408 20.7816 401.459 20.7816C394.583 20.7816 390.369 27.6354 390.369 33.8264H411.069ZM462.187 55.2706H456.568L446.294 22.7711H446.146L435.869 55.2706H430.251L418.128 17.6869H423.229L433.134 50.186H433.282L443.78 17.6869H449.398L459.378 50.186H459.526L469.949 17.6869H474.606L462.187 55.2706ZM476.714 49.8173C479.523 51.2183 482.923 52.1756 486.545 52.1756C490.982 52.1756 494.899 49.7442 494.899 45.4695C494.899 36.5527 476.789 37.953 476.789 27.046C476.789 19.6023 482.85 16.8018 489.059 16.8018C491.056 16.8018 495.048 17.244 498.374 18.4969L497.93 22.5503C495.491 21.4453 492.165 20.7816 489.578 20.7816C484.772 20.7816 481.445 22.2557 481.445 27.046C481.445 34.0469 500 33.1625 500 45.4698C500 53.4285 492.534 56.1553 486.842 56.1553C483.219 56.1553 479.597 55.7126 476.27 54.3866L476.714 49.8173ZM29.4224 3.8315L13.8988 26.0177H13.7505V3.8315H0V55.2706H13.7505V33.0846H13.8988L29.4216 55.2706H45.9808L26.9057 29.5508L45.9808 3.8315H29.4224ZM51.0827 3.8315H85.6063V13.5592H64.8337V24.8341H84.7191V34.5623H64.8337V55.2706H51.0827V3.8315ZM92.1863 3.8315H126.709V13.5592H105.937V24.8341H125.823V34.5623H105.937V55.2706H92.1863V3.8315ZM144.905 3.8315H150.006V26.604H176.102V3.8315H181.203V55.2706H176.102V31.0254H150.006V55.2706H144.905V3.8315ZM215.578 54.092C212.325 55.4185 208.112 56.1555 204.637 56.1555C192.144 56.1555 187.487 47.7543 187.487 36.4789C187.487 24.9825 193.844 16.8025 203.38 16.8025C214.025 16.8025 218.386 25.3509 218.386 35.447V37.8056H192.587C192.587 45.7651 196.874 52.1764 205.006 52.1764C208.408 52.1764 213.36 50.7754 215.578 49.3751V54.092ZM213.286 33.8264C213.286 27.267 210.625 20.7816 203.677 20.7816C196.801 20.7816 192.587 27.6354 192.587 33.8264H213.286ZM246.375 49.2284H246.228C244.157 53.7226 238.909 56.1555 234.251 56.1555C223.533 56.1555 221.832 48.9336 221.832 45.5426C221.832 32.9415 235.287 32.3523 245.045 32.3523H245.932V30.4355C245.932 24.0244 243.64 20.7816 237.357 20.7816C233.438 20.7816 229.742 21.6666 226.267 23.877V19.3821C229.15 17.9811 234.03 16.8018 237.357 16.8018C246.671 16.8018 250.589 21.0026 250.589 30.8046V47.3851C250.589 50.407 250.589 52.6922 250.959 55.2703H246.375V49.2284ZM245.932 36.3315H244.601C236.544 36.3315 226.933 37.1416 226.933 45.3959C226.933 50.3331 230.482 52.1759 234.769 52.1759C245.71 52.1759 245.932 42.6692 245.932 38.6155V36.3315ZM259.055 0.000238144H263.713V55.271H259.055V0.000238144ZM289.177 21.6663H280.602V45.9856C280.602 49.3756 281.859 52.1761 285.629 52.1761C287.403 52.1761 288.586 51.807 289.917 51.2912L290.212 55.1236C289.104 55.5656 286.812 56.1553 284.52 56.1553C276.24 56.1553 275.945 50.481 275.945 43.627V21.6666H268.552V17.6867H275.945V8.62224L280.602 7.00095V17.6867H289.177V21.6663ZM295.069 0H299.726V24.0239H299.875C301.87 19.8976 306.084 16.8022 311.628 16.8022C321.756 16.8022 324.492 23.5084 324.492 32.7943V55.2708H319.834V32.8681C319.834 26.3832 318.577 20.7814 310.889 20.7814C302.61 20.7814 299.726 28.5935 299.726 35.1522V55.2708H295.069L295.069 0Z" fill="white"/>
</svg>
