<svg width="301" height="42" viewBox="0 0 301 42" fill="none" xmlns="http://www.w3.org/2000/svg" aria-hidden="true" tabindex="-1">
<path d="M22.9795 33.925L22.091 28.271C19.9909 29.4421 18.012 30.2095 15.7504 30.2095C11.5503 30.2095 8.44062 27.1402 8.44062 21.5669C8.44062 16.1148 11.1869 12.9244 15.387 12.9244C17.8101 12.9244 19.9102 13.8936 21.6064 15.186L22.5756 8.96657C20.5563 7.83576 18.012 7.14921 14.862 7.14921C6.94635 7.14921 1.53466 12.9648 1.53466 21.6073C1.53466 30.3306 6.62326 35.9846 15.0639 35.9846C18.1332 35.9846 20.7179 35.1769 22.9795 33.925ZM42.4814 25.6055C42.4814 19.2649 38.4428 15.3071 32.9503 15.3071C27.4983 15.3071 23.4597 19.3053 23.4597 25.6459C23.4597 31.9864 27.4579 35.9039 32.91 35.9039C38.4024 35.9039 42.4814 31.9461 42.4814 25.6055ZM36.5851 25.6459C36.5851 28.8364 35.2927 30.9768 32.9503 30.9768C30.6484 30.9768 29.356 28.796 29.356 25.6055C29.356 22.3746 30.608 20.315 32.9503 20.315C35.2927 20.315 36.5851 22.4554 36.5851 25.6459ZM62.3651 25.6055C62.3651 19.2649 58.3265 15.3071 52.834 15.3071C47.3819 15.3071 43.3434 19.3053 43.3434 25.6459C43.3434 31.9864 47.3416 35.9039 52.7936 35.9039C58.2861 35.9039 62.3651 31.9461 62.3651 25.6055ZM56.4687 25.6459C56.4687 28.8364 55.1764 30.9768 52.834 30.9768C50.532 30.9768 49.2397 28.796 49.2397 25.6055C49.2397 22.3746 50.4916 20.315 52.834 20.315C55.1764 20.315 56.4687 22.4554 56.4687 25.6459ZM70.4561 35.5V6.34149L64.3174 7.31075V35.5H70.4561Z" fill="#376101"></path>
<path d="M101.798 33.0769V19.5072H90.126L90.9337 24.6362H95.78V29.6037C94.6492 30.2095 93.5588 30.4922 92.0242 30.4922C87.2183 30.4922 84.7951 26.8171 84.7951 21.5669C84.7951 16.3572 87.1375 12.8032 91.9434 12.8032C94.8108 12.8032 97.2743 13.8532 99.3744 15.186L100.303 9.1685C98.082 7.91654 95.2146 7.10882 91.7818 7.10882C83.1797 7.10882 77.8892 12.9648 77.8892 21.6073C77.8892 30.2095 82.7758 36.025 91.6203 36.025C95.4569 36.025 98.8897 34.975 101.798 33.0769ZM117.533 21.5265L116.524 15.3071C113.616 15.5091 111.96 17.3668 110.749 19.6284L110.102 15.711H104.772V35.5H110.87V24.5151C112.364 22.8996 114.585 21.7285 117.533 21.5265ZM135.592 25.5651C135.592 19.8303 132.886 15.3071 126.828 15.3071C121.457 15.3071 117.499 19.2245 117.499 25.6863C117.499 32.7538 121.739 35.9039 127.676 35.9039C130.786 35.9039 133.411 35.0558 135.551 33.6826L134.945 29.4018C132.765 30.6537 130.624 31.4614 128.443 31.4614C125.778 31.4614 123.92 30.2499 123.597 27.1402H135.47C135.551 26.8171 135.592 26.1709 135.592 25.5651ZM129.776 23.7881H123.557C123.759 20.7592 124.97 19.2649 126.666 19.2649C128.524 19.2649 129.574 20.7996 129.776 23.7881ZM154.77 25.5651C154.77 19.8303 152.064 15.3071 146.006 15.3071C140.635 15.3071 136.677 19.2245 136.677 25.6863C136.677 32.7538 140.918 35.9039 146.854 35.9039C149.964 35.9039 152.589 35.0558 154.73 33.6826L154.124 29.4018C151.943 30.6537 149.803 31.4614 147.622 31.4614C144.956 31.4614 143.099 30.2499 142.775 27.1402H154.649C154.73 26.8171 154.77 26.1709 154.77 25.5651ZM148.954 23.7881H142.735C142.937 20.7592 144.149 19.2649 145.845 19.2649C147.703 19.2649 148.753 20.7996 148.954 23.7881ZM174.433 35.5V21.4458C174.433 17.6091 172.495 15.3071 168.82 15.3071C166.316 15.3071 164.418 16.6802 162.641 18.4168L162.196 15.711H156.825V35.5H162.923V22.4958C164.014 21.4054 165.104 20.7188 166.275 20.7188C167.729 20.7188 168.295 21.6881 168.295 23.1016V35.5H174.433Z" fill="#678B00"></path>
<path d="M199.071 27.0998C199.071 22.6573 196.648 20.5573 190.59 18.3361C187.117 17.0033 186.35 16.3168 186.35 14.9033C186.35 13.6109 187.36 12.7224 189.46 12.7224C191.6 12.7224 194.225 13.5302 196.729 14.984L197.779 9.1685C195.356 7.99731 193.014 7.31075 189.379 7.31075C184.048 7.31075 179.848 10.1781 179.848 15.5494C179.848 20.1534 182.271 21.9708 187.844 24.1112C191.762 25.6055 192.569 26.3324 192.569 27.9075C192.569 29.5633 191.196 30.4114 189.217 30.4114C186.431 30.4114 183.24 29.3614 180.373 27.8267L179.363 33.723C182.19 35.0154 185.34 35.8231 189.096 35.8231C194.629 35.8231 199.071 33.1576 199.071 27.0998ZM215.861 34.0865L215.134 29.1191C213.438 30.2095 212.065 30.6537 210.611 30.6537C208.148 30.6537 206.169 28.9979 206.169 25.6055C206.169 22.2939 207.946 20.638 210.409 20.638C212.025 20.638 213.317 21.0823 214.892 22.0919L215.7 16.8822C214.084 15.9533 212.186 15.3879 209.803 15.3879C204.432 15.3879 199.99 18.7803 199.99 25.767C199.99 32.148 203.867 35.8635 209.561 35.8635C211.903 35.8635 213.882 35.2981 215.861 34.0865ZM224.43 9.85505C224.43 7.83576 222.936 6.54342 220.957 6.54342C219.018 6.54342 217.484 7.83576 217.484 9.85505C217.484 11.834 219.018 13.1263 220.957 13.1263C222.936 13.1263 224.43 11.834 224.43 9.85505ZM224.026 35.5V15.711H217.887V35.5H224.026ZM244.046 25.5651C244.046 19.8303 241.34 15.3071 235.282 15.3071C229.911 15.3071 225.953 19.2245 225.953 25.6863C225.953 32.7538 230.194 35.9039 236.13 35.9039C239.24 35.9039 241.865 35.0558 244.006 33.6826L243.4 29.4018C241.219 30.6537 239.079 31.4614 236.898 31.4614C234.232 31.4614 232.375 30.2499 232.051 27.1402H243.925C244.006 26.8171 244.046 26.1709 244.046 25.5651ZM238.23 23.7881H232.011C232.213 20.7592 233.425 19.2649 235.121 19.2649C236.979 19.2649 238.029 20.7996 238.23 23.7881ZM263.507 35.5V21.4458C263.507 17.6091 261.569 15.3071 257.894 15.3071C255.39 15.3071 253.492 16.6802 251.715 18.4168L251.27 15.711H245.899V35.5H251.997V22.4958C253.088 21.4054 254.178 20.7188 255.349 20.7188C256.803 20.7188 257.369 21.6881 257.369 23.1016V35.5H263.507ZM281.079 34.0865L280.352 29.1191C278.656 30.2095 277.283 30.6537 275.829 30.6537C273.366 30.6537 271.387 28.9979 271.387 25.6055C271.387 22.2939 273.164 20.638 275.627 20.638C277.243 20.638 278.535 21.0823 280.11 22.0919L280.918 16.8822C279.302 15.9533 277.404 15.3879 275.022 15.3879C269.65 15.3879 265.208 18.7803 265.208 25.767C265.208 32.148 269.085 35.8635 274.779 35.8635C277.122 35.8635 279.101 35.2981 281.079 34.0865ZM299.753 25.5651C299.753 19.8303 297.047 15.3071 290.989 15.3071C285.618 15.3071 281.66 19.2245 281.66 25.6863C281.66 32.7538 285.901 35.9039 291.838 35.9039C294.947 35.9039 297.572 35.0558 299.713 33.6826L299.107 29.4018C296.926 30.6537 294.786 31.4614 292.605 31.4614C289.939 31.4614 288.082 30.2499 287.759 27.1402H299.632C299.713 26.8171 299.753 26.1709 299.753 25.5651ZM293.938 23.7881H287.718C287.92 20.7592 289.132 19.2649 290.828 19.2649C292.686 19.2649 293.736 20.7996 293.938 23.7881Z" fill="#4C9DCA"></path>
</svg>